<mxfile host="app.diagrams.net" modified="2023-06-14T23:09:43.177Z" agent="Mozilla/5.0 (Windows NT 10.0; Win64; x64) AppleWebKit/537.36 (KHTML, like Gecko) Chrome/114.0.0.0 Safari/537.36" etag="35MyCD_uPFQCIbGZ2cVw" version="21.3.5" type="github">
  <diagram name="Página-1" id="w_fwGuhp6zodqxAjsLN1">
    <mxGraphModel dx="880" dy="405" grid="1" gridSize="10" guides="1" tooltips="1" connect="1" arrows="1" fold="1" page="1" pageScale="1" pageWidth="827" pageHeight="1169" math="0" shadow="0">
      <root>
        <mxCell id="0" />
        <mxCell id="1" parent="0" />
        <mxCell id="80RmH4tWvELaFEhM5rY3-1" value="Mindmap" style="swimlane;startSize=20;horizontal=1;containerType=tree;fillColor=none;" vertex="1" parent="1">
          <mxGeometry x="130" y="110" width="556" height="290" as="geometry" />
        </mxCell>
        <mxCell id="80RmH4tWvELaFEhM5rY3-2" value="" style="edgeStyle=entityRelationEdgeStyle;startArrow=none;endArrow=none;segment=10;curved=1;sourcePerimeterSpacing=0;targetPerimeterSpacing=0;rounded=0;" edge="1" parent="80RmH4tWvELaFEhM5rY3-1" source="80RmH4tWvELaFEhM5rY3-6" target="80RmH4tWvELaFEhM5rY3-7">
          <mxGeometry relative="1" as="geometry" />
        </mxCell>
        <mxCell id="80RmH4tWvELaFEhM5rY3-6" value="SQL" style="ellipse;whiteSpace=wrap;html=1;align=center;treeFolding=1;treeMoving=1;newEdgeStyle={&quot;edgeStyle&quot;:&quot;entityRelationEdgeStyle&quot;,&quot;startArrow&quot;:&quot;none&quot;,&quot;endArrow&quot;:&quot;none&quot;,&quot;segment&quot;:10,&quot;curved&quot;:1,&quot;sourcePerimeterSpacing&quot;:0,&quot;targetPerimeterSpacing&quot;:0};" vertex="1" parent="80RmH4tWvELaFEhM5rY3-1">
          <mxGeometry x="160" y="60" width="100" height="40" as="geometry" />
        </mxCell>
        <mxCell id="80RmH4tWvELaFEhM5rY3-7" value="&lt;font color=&quot;#7eaf23&quot;&gt;&lt;font style=&quot;font-size: 20px;&quot;&gt;&lt;font face=&quot;Courier New&quot; style=&quot;font-size: 20px;&quot;&gt;&lt;b style=&quot;&quot;&gt;DDL&lt;/b&gt;&lt;/font&gt;&lt;br&gt;&lt;/font&gt;&lt;font style=&quot;font-size: 8px;&quot;&gt;Conjunto de comandos SQL para definir el esquema de la base de datos&lt;/font&gt;&lt;/font&gt;" style="whiteSpace=wrap;html=1;rounded=1;arcSize=11;align=center;verticalAlign=middle;strokeWidth=2;autosize=1;spacing=4;treeFolding=1;treeMoving=1;newEdgeStyle={&quot;edgeStyle&quot;:&quot;entityRelationEdgeStyle&quot;,&quot;startArrow&quot;:&quot;none&quot;,&quot;endArrow&quot;:&quot;none&quot;,&quot;segment&quot;:10,&quot;curved&quot;:1,&quot;sourcePerimeterSpacing&quot;:0,&quot;targetPerimeterSpacing&quot;:0};shadow=0;strokeColor=#828282;glass=0;" vertex="1" parent="80RmH4tWvELaFEhM5rY3-1">
          <mxGeometry x="300" y="39.88" width="110" height="80.25" as="geometry" />
        </mxCell>
        <mxCell id="80RmH4tWvELaFEhM5rY3-20" value="&lt;font color=&quot;#7eaf23&quot;&gt;&lt;font style=&quot;font-size: 20px;&quot;&gt;&lt;font face=&quot;Courier New&quot; style=&quot;font-size: 20px;&quot;&gt;&lt;b style=&quot;&quot;&gt;DML&lt;/b&gt;&lt;/font&gt;&lt;br&gt;&lt;/font&gt;&lt;span style=&quot;font-size: 8px;&quot;&gt;Lenguaje de manipulación de datos&lt;/span&gt;&lt;br&gt;&lt;/font&gt;" style="whiteSpace=wrap;html=1;rounded=1;arcSize=11;align=center;verticalAlign=middle;strokeWidth=2;autosize=1;spacing=4;treeFolding=1;treeMoving=1;newEdgeStyle={&quot;edgeStyle&quot;:&quot;entityRelationEdgeStyle&quot;,&quot;startArrow&quot;:&quot;none&quot;,&quot;endArrow&quot;:&quot;none&quot;,&quot;segment&quot;:10,&quot;curved&quot;:1,&quot;sourcePerimeterSpacing&quot;:0,&quot;targetPerimeterSpacing&quot;:0};shadow=0;strokeColor=#828282;glass=0;" vertex="1" parent="80RmH4tWvELaFEhM5rY3-1">
          <mxGeometry x="300" y="130" width="110" height="70" as="geometry" />
        </mxCell>
        <mxCell id="80RmH4tWvELaFEhM5rY3-23" value="" style="endArrow=none;html=1;rounded=0;fontFamily=Helvetica;fontSize=12;fontColor=default;entryX=1;entryY=1;entryDx=0;entryDy=0;exitX=0.018;exitY=0.052;exitDx=0;exitDy=0;exitPerimeter=0;" edge="1" parent="80RmH4tWvELaFEhM5rY3-1" source="80RmH4tWvELaFEhM5rY3-20" target="80RmH4tWvELaFEhM5rY3-6">
          <mxGeometry width="50" height="50" relative="1" as="geometry">
            <mxPoint x="200" y="140" as="sourcePoint" />
            <mxPoint x="250" y="90" as="targetPoint" />
          </mxGeometry>
        </mxCell>
      </root>
    </mxGraphModel>
  </diagram>
</mxfile>
